# xmcd
#
# Track frame offsets:
#	154
#	14601
#	32024
#	49174
#	66277
#	80369
#
# Disc length: 1329 seconds
# Revision: 1
# Processed by: cddbd v1.5.2PL0 Copyright (c) Steve Scherf et al.
# Submitted via: dBpowerAMP V12.0
#
DISCID=48052f06
DTITLE=Highway One - Forever Bound
DYEAR=1998
DGENRE=Country
TTITLE0=Truth Without Love
TTITLE1=I Do
TTITLE2=Dreamin
TTITLE3=Tailspin
TTITLE4=Forever Bound
TTITLE5=Every Little Piece of my Heart
EXTD=
EXTT0=
EXTT1=
EXTT2=
EXTT3=
EXTT4=
EXTT5=
PLAYORDER=
